<svg width="15" height="15" viewBox="0 0 15 15" fill="none" xmlns="http://www.w3.org/2000/svg">
<path fill-rule="evenodd" clip-rule="evenodd" d="M9.01106 2.43788V5.23786H12.973C13.176 5.23556 13.377 5.27741 13.5621 5.36051C13.7473 5.44361 13.9122 5.56597 14.0453 5.71912C14.1785 5.87226 14.2768 6.05253 14.3334 6.24743C14.3899 6.44233 14.4035 6.6472 14.373 6.84785L13.407 13.1478C13.3564 13.4816 13.1868 13.7859 12.9296 14.0046C12.6723 14.2233 12.3447 14.3416 12.007 14.3378H5.11119L5.11119 4.38764L6.91107 0.337891C7.46803 0.337891 8.00217 0.559139 8.39599 0.952963C8.78981 1.34679 9.01106 1.88093 9.01106 2.43788ZM3.11119 14.3378H2.01111C1.6398 14.3378 1.28371 14.1903 1.02116 13.9278C0.758613 13.6652 0.611115 13.3091 0.611115 12.9378V8.03784C0.611115 7.66654 0.758613 7.31045 1.02116 7.0479C1.28371 6.78535 1.6398 6.63785 2.01111 6.63785H3.11119L3.11119 14.3378Z" fill="white"/>
</svg>
